<svg xmlns="http://www.w3.org/2000/svg" viewBox="0 0 320 320" fill="none" stroke="#2e3436" stroke-width="25" stroke-linejoin="round"><path d="M158.759 117.513c-15.722.299-30.828 10.209-37.276 24.567-1.134 2.453-2.028 5.016-2.69 7.636-.117.448-.391 1.64-.523 2.374-2.586 12.92 1.458 26.875 10.365 36.551 9.108 10.193 23.393 15.302 36.911 13.503 13.942-1.783 26.721-10.932 32.746-23.655 5.939-12.2 5.609-27.274-1.099-39.1-6.394-11.63-18.486-19.977-31.701-21.532-2.231-.29-4.485-.397-6.733-.344z"/><path d="M288.905 112c1.719 4.674.269 9.885-3.438 13.215l-23.261 21.166c.591 4.459.913 9.025.913 13.645s-.322 9.186-.913 13.645l23.261 21.166c3.707 3.331 5.157 8.542 3.438 13.215-2.364 6.393-5.211 12.517-8.488 18.426l-2.525 4.351a136.7 136.7 0 0 1-11.872 16.761c-3.17 3.868-8.434 5.157-13.162 3.653l-29.923-9.509c-7.199 5.533-15.149 10.153-23.637 13.645l-6.715 30.675c-1.074 4.889-4.835 8.757-9.777 9.562-7.414 1.236-15.042 1.88-22.832 1.88s-15.418-.645-22.832-1.88c-4.942-.806-8.703-4.674-9.777-9.562l-6.715-30.675c-8.488-3.492-16.439-8.112-23.637-13.645L67.143 251.3c-4.727 1.504-9.992.161-13.162-3.653a136.7 136.7 0 0 1-11.872-16.761l-2.525-4.351c-3.277-5.909-6.124-12.034-8.488-18.426-1.719-4.674-.269-9.885 3.438-13.215l23.261-21.166c-.591-4.513-.913-9.079-.913-13.699s.322-9.186.913-13.645l-23.261-21.166c-3.707-3.331-5.157-8.542-3.438-13.215 2.364-6.393 5.211-12.517 8.488-18.426l2.525-4.351a136.7 136.7 0 0 1 11.872-16.761c3.17-3.868 8.434-5.157 13.162-3.653l29.923 9.509c7.199-5.533 15.149-10.153 23.637-13.645l6.715-30.675c1.074-4.889 4.835-8.757 9.777-9.562 7.414-1.289 15.042-1.934 22.832-1.934s15.418.645 22.832 1.88c4.942.806 8.703 4.674 9.777 9.562l6.715 30.675c8.488 3.492 16.439 8.112 23.637 13.645l29.923-9.509c4.727-1.504 9.992-.161 13.162 3.653 4.351 5.265 8.327 10.852 11.872 16.761l2.525 4.351c3.277 5.909 6.124 12.034 8.488 18.426z"/></svg>