<svg xmlns="http://www.w3.org/2000/svg" width="320" height="320" viewBox="0 0 320 320" fill="none" stroke="#2e3436" stroke-width="21" stroke-linejoin="round"><path d="M158.832 120.012c-14.797.281-29.014 9.609-35.083 23.122a41.16 41.16 0 0 0-2.532 7.187 39.24 39.24 0 0 0-.492 2.234c-2.434 12.16 1.372 25.294 9.755 34.401 8.572 9.593 22.017 14.402 34.74 12.709 13.122-1.678 25.149-10.289 30.82-22.264 5.59-11.482 5.279-25.67-1.034-36.8-6.018-10.946-17.399-18.802-29.836-20.266a41.58 41.58 0 0 0-6.337-.324z"/><path d="M286.565 112.871c1.688 4.589.264 9.706-3.376 12.975l-22.839 20.782c.58 4.378.896 8.861.896 13.397s-.316 9.019-.896 13.397l22.839 20.782c3.64 3.271 5.063 8.387 3.376 12.975-2.321 6.277-5.116 12.29-8.334 18.092l-2.479 4.272A134.219 134.219 0 0 1 264.095 246c-3.112 3.798-8.281 5.063-12.923 3.587l-29.38-9.336c-7.068 5.433-14.874 9.969-23.208 13.397l-6.593 30.118c-1.054 4.8-4.747 8.598-9.6 9.388-7.279 1.214-14.769 1.846-22.418 1.846s-15.138-.633-22.418-1.846c-4.852-.791-8.545-4.589-9.6-9.388l-6.593-30.118c-8.334-3.429-16.141-7.965-23.208-13.397l-29.328 9.392c-4.641 1.477-9.811.158-12.923-3.587a134.219 134.219 0 0 1-11.657-16.457l-2.479-4.272c-3.218-5.802-6.013-11.816-8.334-18.092-1.688-4.589-.264-9.706 3.376-12.975l22.839-20.782c-.58-4.431-.896-8.914-.896-13.45s.316-9.019.896-13.397l-22.839-20.782c-3.64-3.271-5.063-8.387-3.376-12.975 2.321-6.277 5.116-12.29 8.334-18.092l2.479-4.272a134.219 134.219 0 0 1 11.657-16.457c3.112-3.798 8.281-5.063 12.923-3.587l29.38 9.336c7.068-5.433 14.874-9.969 23.208-13.397l6.593-30.118c1.054-4.8 4.747-8.598 9.6-9.388C144.888 25.633 152.377 25 160.026 25s15.138.633 22.418 1.846c4.852.791 8.545 4.589 9.6 9.388l6.593 30.118c8.334 3.429 16.141 7.965 23.208 13.397l29.38-9.336c4.641-1.477 9.811-.158 12.923 3.587 4.272 5.169 8.176 10.655 11.657 16.457l2.479 4.272c3.218 5.802 6.013 11.816 8.334 18.092z"/></svg>