<svg xmlns="http://www.w3.org/2000/svg" viewBox="0 0 320 320"><path d="M90 10h140a80 80 45 0 1 80 80v140a80 80 135 0 1-80 80H90a80 80 45 0 1-80-80V90a80 80 135 0 1 80-80z" fill="#0036bd"/><path d="M90 30h140a60 60 45 0 1 60 60v140a60 60 135 0 1-60 60H90a60 60 45 0 1-60-60V90a60 60 135 0 1 60-60z" fill="#69fcbf"/><path d="M112.316 85c-22.245 0-37.142 7.792-44.695 23.376-2.472 5.52-3.707 12.337-3.707 20.453 0 15.746 7.07 27.109 21.214 34.089 1.373.162 2.059.812 2.059 1.948-13.594 5.358-20.391 15.422-20.391 30.194-1.922 22.564-4.187 35.874-6.796 39.932h32.955c3.57-29.058 6.797-46.265 9.68-51.623 5.218-4.546 11.398-6.818 18.538-6.818h33.986v58.438h2.884v.01h30.071v-.01-60.38c0-18.182 7.759-27.271 23.275-27.271h1.031c11.672 0 17.507 8.117 17.507 24.351V235H260v-62.338c0-9.254-1.03-18.343-3.09-27.271-5.63-14.286-17.577-21.429-35.84-21.429-12.496 0-23.481 5.843-32.955 17.531V85h-30.071zm6.799 25.321l36.045.002v42.855h-35.014c-15.517 0-23.275-7.143-23.275-21.429s7.414-21.429 22.245-21.429z" fill="#0036bd"/></svg>